<svg xmlns="http://www.w3.org/2000/svg" xmlns:xlink="http://www.w3.org/1999/xlink" version="1.1" width="256" height="256" viewBox="0 0 256 256" xml:space="preserve">

<defs>
</defs>
<g style="stroke: none; stroke-width: 0; stroke-dasharray: none; stroke-linecap: butt; stroke-linejoin: miter; stroke-miterlimit: 10; fill: none; fill-rule: nonzero; opacity: 1;" transform="translate(1.4065934065934016 1.4065934065934016) scale(2.81 2.81)" >
	<path d="M 45 0 C 26.842 0 12.07 14.772 12.07 32.931 c 0 12.554 7.314 21.142 15.059 30.233 c 6.284 7.377 12.781 15.005 15.958 25.42 C 43.344 89.425 44.12 90 45 90 s 1.656 -0.575 1.913 -1.416 c 3.178 -10.415 9.675 -18.043 15.959 -25.42 c 7.744 -9.092 15.059 -17.68 15.059 -30.233 C 77.931 14.772 63.158 0 45 0 z M 45 51.731 c -10.795 0 -19.545 -8.751 -19.545 -19.545 c 0 -10.795 8.751 -19.545 19.545 -19.545 s 19.545 8.751 19.545 19.545 C 64.545 42.98 55.795 51.731 45 51.731 z" style="stroke: none; stroke-width: 1; stroke-dasharray: none; stroke-linecap: butt; stroke-linejoin: miter; stroke-miterlimit: 10; fill: rgb(144, 178, 8); fill-rule: nonzero; opacity: 1;" transform=" matrix(1 0 0 1 0 0) " stroke-linecap="round" />
</g>
</svg>